<svg width="486mm" height="243mm" viewBox="0 0 486 243" xmlns="http://www.w3.org/2000/svg" version="1.1" preserveAspectRatio="xMidYMid meet"><g id="svgGroup" stroke-linecap="round" fill-rule="evenodd" font-size="9pt" stroke="#000" stroke-width="0.25mm" fill="none" style="stroke:#000;stroke-width:0.25mm;fill:none"><path d="M 0 123 L 0 132 L 3 132 L 3 138 L 0 138 L 0 144 L 3 144 L 3 150 L 0 150 L 0 156 L 3 156 L 3 162 L 0 162 L 0 168 L 3 168 L 3 174 L 0 174 L 0 180 L 3 180 L 3 186 L 0 186 L 0 192 L 3 192 L 3 198 L 0 198 L 0 204 L 3 204 L 3 210 L 0 210 L 0 216 L 3 216 L 3 222 L 0 222 L 0 228 L 3 228 L 3 234 L 0 234 L 0 240 L 0 243 L 8.5 243 L 8.5 240 L 14.5 240 L 14.5 243 L 20.5 243 L 20.5 240 L 26.5 240 L 26.5 243 L 32.5 243 L 32.5 240 L 38.5 240 L 38.5 243 L 44.5 243 L 44.5 240 L 50.5 240 L 50.5 243 L 56.5 243 L 56.5 240 L 62.5 240 L 62.5 243 L 68.5 243 L 68.5 240 L 74.5 240 L 74.5 243 L 80.5 243 L 80.5 240 L 86.5 240 L 86.5 243 L 92.5 243 L 92.5 240 L 98.5 240 L 98.5 243 L 104.5 243 L 104.5 240 L 110.5 240 L 110.5 243 L 116.5 243 L 116.5 240 L 122.5 240 L 122.5 243 L 128.5 243 L 128.5 240 L 134.5 240 L 134.5 243 L 140.5 243 L 140.5 240 L 146.5 240 L 146.5 243 L 152.5 243 L 152.5 240 L 158.5 240 L 158.5 243 L 164.5 243 L 164.5 240 L 170.5 240 L 170.5 243 L 176.5 243 L 176.5 240 L 182.5 240 L 182.5 243 L 188.5 243 L 188.5 240 L 194.5 240 L 194.5 243 L 200.5 243 L 200.5 240 L 206.5 240 L 206.5 243 L 215 243 L 215 234 L 212 234 L 212 228 L 215 228 L 215 222 L 212 222 L 212 216 L 215 216 L 215 210 L 212 210 L 212 204 L 215 204 L 215 198 L 212 198 L 212 192 L 215 192 L 215 186 L 212 186 L 212 180 L 215 180 L 215 174 L 212 174 L 212 168 L 215 168 L 215 162 L 212 162 L 212 156 L 215 156 L 215 150 L 212 150 L 212 144 L 215 144 L 215 138 L 212 138 L 212 132 L 215 132 L 215 126 L 215 123 L 206.5 123 L 206.5 126 L 200.5 126 L 200.5 123 L 194.5 123 L 194.5 126 L 188.5 126 L 188.5 123 L 182.5 123 L 182.5 126 L 176.5 126 L 176.5 123 L 170.5 123 L 170.5 126 L 164.5 126 L 164.5 123 L 158.5 123 L 158.5 126 L 152.5 126 L 152.5 123 L 146.5 123 L 146.5 126 L 140.5 126 L 140.5 123 L 134.5 123 L 134.5 126 L 128.5 126 L 128.5 123 L 122.5 123 L 122.5 126 L 116.5 126 L 116.5 123 L 110.5 123 L 110.5 126 L 104.5 126 L 104.5 123 L 98.5 123 L 98.5 126 L 92.5 126 L 92.5 123 L 86.5 123 L 86.5 126 L 80.5 126 L 80.5 123 L 74.5 123 L 74.5 126 L 68.5 126 L 68.5 123 L 62.5 123 L 62.5 126 L 56.5 126 L 56.5 123 L 50.5 123 L 50.5 126 L 44.5 126 L 44.5 123 L 38.5 123 L 38.5 126 L 32.5 126 L 32.5 123 L 26.5 123 L 26.5 126 L 20.5 126 L 20.5 123 L 14.5 123 L 14.5 126 L 8.5 126 L 8.5 123 L 0 123 Z" id="front_outsideCutPath" stroke="#FF0000" stroke-width="0.1" style="stroke:#FF0000;stroke-width:0.1" vector-effect="non-scaling-stroke"/><path d="M 124.99 192.064 L 123.045 192.064 L 123.045 183.756 Q 123.045 182.185 122.33 181.412 A 2.193 2.193 0 0 0 121.431 180.838 Q 121.077 180.713 120.643 180.666 A 5.157 5.157 0 0 0 120.092 180.638 A 5.888 5.888 0 0 0 118.99 180.734 Q 118.376 180.852 117.904 181.111 A 2.743 2.743 0 0 0 117.139 181.728 Q 116.282 182.724 116.208 184.903 A 12.463 12.463 0 0 0 116.201 185.326 L 116.201 192.064 L 114.256 192.064 L 114.256 179.22 L 115.838 179.22 L 116.154 180.978 L 116.248 180.978 Q 116.846 180.029 117.924 179.508 A 5.268 5.268 0 0 1 119.798 179.008 A 6.37 6.37 0 0 1 120.326 178.986 A 7.68 7.68 0 0 1 121.633 179.09 Q 122.34 179.212 122.899 179.478 A 3.496 3.496 0 0 1 123.818 180.105 A 3.371 3.371 0 0 1 124.64 181.395 Q 124.837 181.926 124.923 182.585 A 8.489 8.489 0 0 1 124.99 183.685 L 124.99 192.064 Z M 87.619 179.22 L 87.619 180.732 L 84.35 180.732 L 84.35 192.064 L 82.404 192.064 L 82.404 180.732 L 80.107 180.732 L 80.107 179.853 L 82.404 179.15 L 82.404 178.435 Q 82.404 174.348 85.487 173.789 A 5.913 5.913 0 0 1 86.541 173.701 Q 87.334 173.701 88.339 173.949 A 12.593 12.593 0 0 1 88.932 174.111 L 88.428 175.67 A 9.446 9.446 0 0 0 87.693 175.463 Q 87.322 175.375 86.995 175.337 A 4.184 4.184 0 0 0 86.506 175.306 A 2.623 2.623 0 0 0 85.873 175.378 A 1.685 1.685 0 0 0 84.877 176.039 Q 84.35 176.771 84.35 178.388 L 84.35 179.22 L 87.619 179.22 Z M 134.893 190.459 L 134.893 191.947 Q 134.607 192.085 134.077 192.179 A 7.276 7.276 0 0 1 133.961 192.199 Q 133.387 192.292 132.919 192.298 A 4.987 4.987 0 0 1 132.854 192.299 A 5.081 5.081 0 0 1 131.356 192.097 Q 129.71 191.589 129.28 189.801 A 6.115 6.115 0 0 1 129.127 188.373 L 129.127 180.732 L 127.287 180.732 L 127.287 179.795 L 129.127 178.986 L 129.947 176.244 L 131.072 176.244 L 131.072 179.22 L 134.799 179.22 L 134.799 180.732 L 131.072 180.732 L 131.072 188.291 Q 131.072 189.106 131.344 189.655 A 1.887 1.887 0 0 0 131.623 190.072 A 1.807 1.807 0 0 0 132.734 190.663 A 2.6 2.6 0 0 0 133.135 190.693 A 6.389 6.389 0 0 0 134.071 190.626 A 5.888 5.888 0 0 0 134.131 190.617 Q 134.589 190.544 134.866 190.466 A 2.926 2.926 0 0 0 134.893 190.459 Z M 97.357 179.127 L 97.088 180.931 Q 96.424 180.785 95.89 180.761 A 4.563 4.563 0 0 0 95.682 180.756 A 3.371 3.371 0 0 0 93.191 181.831 A 4.611 4.611 0 0 0 93.016 182.021 A 4.442 4.442 0 0 0 91.944 184.516 A 5.905 5.905 0 0 0 91.908 185.174 L 91.908 192.064 L 89.963 192.064 L 89.963 179.22 L 91.568 179.22 L 91.791 181.599 L 91.885 181.599 A 6.569 6.569 0 0 1 92.619 180.55 A 5.018 5.018 0 0 1 93.607 179.666 A 3.878 3.878 0 0 1 95.822 178.986 A 8.931 8.931 0 0 1 96.622 179.02 A 6.518 6.518 0 0 1 97.357 179.127 Z M 109.264 190.535 A 5.427 5.427 0 0 0 109.91 189.647 Q 110.846 188.046 110.846 185.631 Q 110.846 182.572 109.258 180.779 Q 107.67 178.986 104.975 178.986 A 7.555 7.555 0 0 0 103.618 179.103 A 5.145 5.145 0 0 0 100.615 180.738 Q 99.572 181.901 99.222 183.677 A 10.101 10.101 0 0 0 99.045 185.631 A 9.732 9.732 0 0 0 99.167 187.207 A 7.196 7.196 0 0 0 99.771 189.17 A 6.394 6.394 0 0 0 99.913 189.447 A 5.266 5.266 0 0 0 101.834 191.49 A 5.417 5.417 0 0 0 103.077 192.043 A 6.247 6.247 0 0 0 104.893 192.299 A 7.554 7.554 0 0 0 106.212 192.188 A 5.186 5.186 0 0 0 109.264 190.535 Z M 101.061 185.631 A 9.851 9.851 0 0 0 101.154 187.038 Q 101.258 187.752 101.475 188.331 A 4.081 4.081 0 0 0 102.045 189.381 A 3.188 3.188 0 0 0 104.121 190.603 A 4.831 4.831 0 0 0 104.939 190.67 A 4.518 4.518 0 0 0 106.132 190.521 A 3.145 3.145 0 0 0 107.84 189.386 Q 108.576 188.432 108.765 186.82 A 10.247 10.247 0 0 0 108.83 185.631 A 9.706 9.706 0 0 0 108.738 184.247 Q 108.637 183.543 108.423 182.973 A 4.005 4.005 0 0 0 107.84 181.91 A 3.2 3.2 0 0 0 105.85 180.723 A 4.906 4.906 0 0 0 104.916 180.638 A 4.63 4.63 0 0 0 103.763 180.773 A 3.098 3.098 0 0 0 102.033 181.892 Q 101.333 182.795 101.137 184.335 A 10.28 10.28 0 0 0 101.061 185.631 Z" id="front_labelLayer" stroke="#777777" fill="#777777" style="stroke:#777777;fill:#777777" vector-effect="non-scaling-stroke"/><path d="M 221 123 L 221 132 L 218 132 L 218 138 L 221 138 L 221 144 L 218 144 L 218 150 L 221 150 L 221 156 L 218 156 L 218 162 L 221 162 L 221 168 L 218 168 L 218 174 L 221 174 L 221 180 L 218 180 L 218 186 L 221 186 L 221 192 L 218 192 L 218 198 L 221 198 L 221 204 L 218 204 L 218 210 L 221 210 L 221 216 L 218 216 L 218 222 L 221 222 L 221 228 L 218 228 L 218 234 L 221 234 L 221 240 L 221 243 L 228 243 L 228 240 L 234 240 L 234 243 L 240 243 L 240 240 L 246 240 L 246 243 L 252 243 L 252 240 L 258 240 L 258 243 L 264 243 L 265 243 L 265 234 L 268 234 L 268 228 L 265 228 L 265 222 L 268 222 L 268 216 L 265 216 L 265 210 L 268 210 L 268 204 L 265 204 L 265 198 L 268 198 L 268 192 L 265 192 L 265 186 L 268 186 L 268 180 L 265 180 L 265 174 L 268 174 L 268 168 L 265 168 L 265 162 L 268 162 L 268 156 L 265 156 L 265 150 L 268 150 L 268 144 L 265 144 L 265 138 L 268 138 L 268 132 L 265 132 L 265 126 L 265 123 L 258 123 L 258 126 L 252 126 L 252 123 L 246 123 L 246 126 L 240 126 L 240 123 L 234 123 L 234 126 L 228 126 L 228 123 L 222 123 L 221 123 Z" id="left_outsideCutPath" stroke="#FF0000" stroke-width="0.1" style="stroke:#FF0000;stroke-width:0.1" vector-effect="non-scaling-stroke"/><path d="M 246.557 181.425 L 246.557 182.055 L 245.195 182.055 L 245.195 186.777 L 244.384 186.777 L 244.384 182.055 L 243.427 182.055 L 243.427 181.689 L 244.384 181.396 L 244.384 181.098 A 3.285 3.285 0 0 1 244.461 180.354 Q 244.748 179.125 246.108 179.125 A 2.61 2.61 0 0 1 246.477 179.154 Q 246.657 179.179 246.857 179.229 A 5.247 5.247 0 0 1 247.104 179.296 L 246.894 179.946 Q 246.561 179.838 246.297 179.807 A 1.743 1.743 0 0 0 246.093 179.794 A 1.093 1.093 0 0 0 245.83 179.824 A 0.702 0.702 0 0 0 245.415 180.1 Q 245.195 180.405 245.195 181.079 L 245.195 181.425 L 246.557 181.425 Z M 242.763 183.735 L 242.763 184.247 L 239.077 184.247 Q 239.093 184.891 239.309 185.323 A 1.522 1.522 0 0 0 239.553 185.678 A 1.473 1.473 0 0 0 240.326 186.114 A 2.232 2.232 0 0 0 240.825 186.166 A 4.281 4.281 0 0 0 242.428 185.849 A 4.905 4.905 0 0 0 242.534 185.805 L 242.534 186.528 A 4.866 4.866 0 0 1 242.09 186.695 A 3.721 3.721 0 0 1 241.721 186.794 Q 241.337 186.874 240.795 186.874 A 3.15 3.15 0 0 1 240.007 186.781 A 2.23 2.23 0 0 1 238.923 186.152 Q 238.276 185.471 238.239 184.291 A 4.63 4.63 0 0 1 238.237 184.145 A 4.256 4.256 0 0 1 238.316 183.301 Q 238.419 182.788 238.66 182.389 A 2.4 2.4 0 0 1 238.874 182.089 A 2.077 2.077 0 0 1 240.388 181.334 A 2.865 2.865 0 0 1 240.585 181.328 A 2.469 2.469 0 0 1 241.281 181.421 A 1.879 1.879 0 0 1 242.177 181.989 A 2.266 2.266 0 0 1 242.691 183.025 A 3.299 3.299 0 0 1 242.763 183.735 Z M 249.995 186.108 L 249.995 186.728 A 0.797 0.797 0 0 1 249.9 186.765 Q 249.799 186.799 249.655 186.825 A 3.033 3.033 0 0 1 249.606 186.833 Q 249.35 186.874 249.145 186.874 A 2.117 2.117 0 0 1 248.521 186.79 Q 247.592 186.504 247.592 185.239 L 247.592 182.055 L 246.826 182.055 L 246.826 181.664 L 247.592 181.328 L 247.934 180.185 L 248.403 180.185 L 248.403 181.425 L 249.956 181.425 L 249.956 182.055 L 248.403 182.055 L 248.403 185.204 A 1.632 1.632 0 0 0 248.426 185.491 Q 248.454 185.648 248.516 185.773 A 0.786 0.786 0 0 0 248.632 185.947 Q 248.862 186.205 249.262 186.205 A 2.662 2.662 0 0 0 249.652 186.178 A 2.453 2.453 0 0 0 249.677 186.174 Q 249.877 186.142 249.995 186.108 Z M 236.816 179.179 L 236.816 186.777 L 236.005 186.777 L 236.005 179.179 L 236.816 179.179 Z M 239.096 183.588 L 241.894 183.588 Q 241.894 183.07 241.738 182.715 A 1.254 1.254 0 0 0 241.552 182.414 A 1.11 1.11 0 0 0 240.884 182.033 A 1.666 1.666 0 0 0 240.576 182.006 Q 239.931 182.006 239.548 182.426 A 1.601 1.601 0 0 0 239.229 182.963 Q 239.128 183.24 239.096 183.588 Z" id="left_labelLayer" stroke="#777777" fill="#777777" style="stroke:#777777;fill:#777777" vector-effect="non-scaling-stroke"/><path d="M 274 196 L 274 203 L 271 203 L 271 209 L 274 209 L 274 215 L 271 215 L 271 221 L 274 221 L 274 227 L 271 227 L 271 233 L 274 233 L 274 239 L 274 240 L 279.5 240 L 279.5 243 L 285.5 243 L 285.5 240 L 291.5 240 L 291.5 243 L 297.5 243 L 297.5 240 L 303.5 240 L 303.5 243 L 309.5 243 L 309.5 240 L 315.5 240 L 315.5 243 L 321.5 243 L 321.5 240 L 327.5 240 L 327.5 243 L 333.5 243 L 333.5 240 L 339.5 240 L 339.5 243 L 345.5 243 L 345.5 240 L 351.5 240 L 351.5 243 L 357.5 243 L 357.5 240 L 363.5 240 L 363.5 243 L 369.5 243 L 369.5 240 L 375.5 240 L 375.5 243 L 381.5 243 L 381.5 240 L 387.5 240 L 387.5 243 L 393.5 243 L 393.5 240 L 399.5 240 L 399.5 243 L 405.5 243 L 405.5 240 L 411.5 240 L 411.5 243 L 417.5 243 L 417.5 240 L 423.5 240 L 423.5 243 L 429.5 243 L 429.5 240 L 435.5 240 L 435.5 243 L 441.5 243 L 441.5 240 L 447.5 240 L 447.5 243 L 453.5 243 L 453.5 240 L 459.5 240 L 459.5 243 L 465.5 243 L 465.5 240 L 471.5 240 L 471.5 243 L 477.5 243 L 477.5 240 L 483 240 L 483 233 L 486 233 L 486 227 L 483 227 L 483 221 L 486 221 L 486 215 L 483 215 L 483 209 L 486 209 L 486 203 L 483 203 L 483 197 L 483 196 L 477.5 196 L 477.5 193 L 471.5 193 L 471.5 196 L 465.5 196 L 465.5 193 L 459.5 193 L 459.5 196 L 453.5 196 L 453.5 193 L 447.5 193 L 447.5 196 L 441.5 196 L 441.5 193 L 435.5 193 L 435.5 196 L 429.5 196 L 429.5 193 L 423.5 193 L 423.5 196 L 417.5 196 L 417.5 193 L 411.5 193 L 411.5 196 L 405.5 196 L 405.5 193 L 399.5 193 L 399.5 196 L 393.5 196 L 393.5 193 L 387.5 193 L 387.5 196 L 381.5 196 L 381.5 193 L 375.5 193 L 375.5 196 L 369.5 196 L 369.5 193 L 363.5 193 L 363.5 196 L 357.5 196 L 357.5 193 L 351.5 193 L 351.5 196 L 345.5 196 L 345.5 193 L 339.5 193 L 339.5 196 L 333.5 196 L 333.5 193 L 327.5 193 L 327.5 196 L 321.5 196 L 321.5 193 L 315.5 193 L 315.5 196 L 309.5 196 L 309.5 193 L 303.5 193 L 303.5 196 L 297.5 196 L 297.5 193 L 291.5 193 L 291.5 196 L 285.5 196 L 285.5 193 L 279.5 193 L 279.5 196 L 274 196 Z" id="top_outsideCutPath" stroke="#FF0000" stroke-width="0.1" style="stroke:#FF0000;stroke-width:0.1" vector-effect="non-scaling-stroke"/><path d="M 382.094 219.406 L 382.035 219.406 A 7.671 7.671 0 0 1 382.085 219.973 A 6.428 6.428 0 0 1 382.094 220.295 L 382.094 222.497 L 381.283 222.497 L 381.283 214.743 L 381.942 214.743 L 382.055 215.476 L 382.094 215.476 A 2.182 2.182 0 0 1 382.409 215.117 A 1.687 1.687 0 0 1 382.821 214.841 A 2.03 2.03 0 0 1 383.403 214.671 A 2.627 2.627 0 0 1 383.773 214.646 A 2.485 2.485 0 0 1 384.475 214.739 A 1.836 1.836 0 0 1 385.416 215.373 Q 385.995 216.101 385.995 217.414 A 4.752 4.752 0 0 1 385.932 218.214 Q 385.859 218.64 385.702 218.982 A 2.278 2.278 0 0 1 385.407 219.462 A 1.919 1.919 0 0 1 384.043 220.18 A 2.749 2.749 0 0 1 383.773 220.192 Q 383.251 220.192 382.819 220 A 1.795 1.795 0 0 1 382.094 219.406 Z M 374.174 219.426 L 374.174 220.046 A 0.797 0.797 0 0 1 374.079 220.083 Q 373.978 220.117 373.834 220.143 A 3.033 3.033 0 0 1 373.786 220.151 Q 373.529 220.192 373.324 220.192 A 2.117 2.117 0 0 1 372.7 220.108 Q 371.771 219.822 371.771 218.557 L 371.771 215.373 L 371.005 215.373 L 371.005 214.982 L 371.771 214.646 L 372.113 213.503 L 372.582 213.503 L 372.582 214.743 L 374.135 214.743 L 374.135 215.373 L 372.582 215.373 L 372.582 218.522 A 1.632 1.632 0 0 0 372.606 218.809 Q 372.634 218.966 372.695 219.091 A 0.786 0.786 0 0 0 372.811 219.265 Q 373.041 219.523 373.441 219.523 A 2.662 2.662 0 0 0 373.831 219.496 A 2.453 2.453 0 0 0 373.856 219.492 Q 374.057 219.46 374.174 219.426 Z M 379.788 218.229 A 4.187 4.187 0 0 0 379.862 217.414 Q 379.862 216.894 379.752 216.461 A 2.524 2.524 0 0 0 379.201 215.393 A 2.122 2.122 0 0 0 378.216 214.757 A 2.724 2.724 0 0 0 377.416 214.646 A 3.148 3.148 0 0 0 376.851 214.694 A 2.144 2.144 0 0 0 375.6 215.375 A 2.239 2.239 0 0 0 375.325 215.757 Q 374.945 216.418 374.945 217.414 A 4.055 4.055 0 0 0 374.996 218.071 A 2.998 2.998 0 0 0 375.248 218.889 A 2.664 2.664 0 0 0 375.307 219.004 A 2.194 2.194 0 0 0 376.107 219.855 Q 376.664 220.192 377.382 220.192 A 3.147 3.147 0 0 0 377.931 220.146 A 2.161 2.161 0 0 0 379.203 219.458 A 2.261 2.261 0 0 0 379.472 219.088 Q 379.692 218.712 379.788 218.229 Z M 375.785 217.414 Q 375.785 218.439 376.195 218.977 A 1.328 1.328 0 0 0 377.06 219.486 A 2.013 2.013 0 0 0 377.401 219.514 A 1.883 1.883 0 0 0 377.898 219.452 A 1.31 1.31 0 0 0 378.61 218.979 A 1.74 1.74 0 0 0 378.881 218.451 Q 378.96 218.207 378.995 217.91 A 4.27 4.27 0 0 0 379.022 217.414 A 4.044 4.044 0 0 0 378.984 216.838 Q 378.942 216.544 378.853 216.307 A 1.669 1.669 0 0 0 378.61 215.864 A 1.333 1.333 0 0 0 377.781 215.369 A 2.044 2.044 0 0 0 377.392 215.334 A 1.929 1.929 0 0 0 376.911 215.39 A 1.291 1.291 0 0 0 376.19 215.856 Q 375.785 216.379 375.785 217.414 Z M 382.094 217.233 L 382.094 217.414 A 5.359 5.359 0 0 0 382.12 217.968 Q 382.179 218.527 382.365 218.867 A 1.222 1.222 0 0 0 382.47 219.028 A 1.176 1.176 0 0 0 383.066 219.43 Q 383.266 219.493 383.509 219.508 A 2.606 2.606 0 0 0 383.676 219.514 A 1.366 1.366 0 0 0 384.207 219.414 Q 384.535 219.277 384.762 218.952 A 1.96 1.96 0 0 0 385.031 218.38 Q 385.109 218.117 385.138 217.802 A 4.318 4.318 0 0 0 385.155 217.404 Q 385.155 216.747 384.986 216.291 A 1.718 1.718 0 0 0 384.762 215.869 A 1.261 1.261 0 0 0 383.84 215.343 A 1.744 1.744 0 0 0 383.656 215.334 Q 382.836 215.334 382.47 215.788 Q 382.127 216.213 382.096 217.109 A 5.158 5.158 0 0 0 382.094 217.233 Z" id="top_labelLayer" stroke="#777777" fill="#777777" style="stroke:#777777;fill:#777777" vector-effect="non-scaling-stroke"/><path d="M 0 0 L 0 9 L 3 9 L 3 15 L 0 15 L 0 21 L 3 21 L 3 27 L 0 27 L 0 33 L 3 33 L 3 39 L 0 39 L 0 45 L 3 45 L 3 51 L 0 51 L 0 57 L 3 57 L 3 63 L 0 63 L 0 69 L 3 69 L 3 75 L 0 75 L 0 81 L 3 81 L 3 87 L 0 87 L 0 93 L 3 93 L 3 99 L 0 99 L 0 105 L 3 105 L 3 111 L 0 111 L 0 117 L 0 120 L 8.5 120 L 8.5 117 L 14.5 117 L 14.5 120 L 20.5 120 L 20.5 117 L 26.5 117 L 26.5 120 L 32.5 120 L 32.5 117 L 38.5 117 L 38.5 120 L 44.5 120 L 44.5 117 L 50.5 117 L 50.5 120 L 56.5 120 L 56.5 117 L 62.5 117 L 62.5 120 L 68.5 120 L 68.5 117 L 74.5 117 L 74.5 120 L 80.5 120 L 80.5 117 L 86.5 117 L 86.5 120 L 92.5 120 L 92.5 117 L 98.5 117 L 98.5 120 L 104.5 120 L 104.5 117 L 110.5 117 L 110.5 120 L 116.5 120 L 116.5 117 L 122.5 117 L 122.5 120 L 128.5 120 L 128.5 117 L 134.5 117 L 134.5 120 L 140.5 120 L 140.5 117 L 146.5 117 L 146.5 120 L 152.5 120 L 152.5 117 L 158.5 117 L 158.5 120 L 164.5 120 L 164.5 117 L 170.5 117 L 170.5 120 L 176.5 120 L 176.5 117 L 182.5 117 L 182.5 120 L 188.5 120 L 188.5 117 L 194.5 117 L 194.5 120 L 200.5 120 L 200.5 117 L 206.5 117 L 206.5 120 L 215 120 L 215 111 L 212 111 L 212 105 L 215 105 L 215 99 L 212 99 L 212 93 L 215 93 L 215 87 L 212 87 L 212 81 L 215 81 L 215 75 L 212 75 L 212 69 L 215 69 L 215 63 L 212 63 L 212 57 L 215 57 L 215 51 L 212 51 L 212 45 L 215 45 L 215 39 L 212 39 L 212 33 L 215 33 L 215 27 L 212 27 L 212 21 L 215 21 L 215 15 L 212 15 L 212 9 L 215 9 L 215 3 L 215 0 L 206.5 0 L 206.5 3 L 200.5 3 L 200.5 0 L 194.5 0 L 194.5 3 L 188.5 3 L 188.5 0 L 182.5 0 L 182.5 3 L 176.5 3 L 176.5 0 L 170.5 0 L 170.5 3 L 164.5 3 L 164.5 0 L 158.5 0 L 158.5 3 L 152.5 3 L 152.5 0 L 146.5 0 L 146.5 3 L 140.5 3 L 140.5 0 L 134.5 0 L 134.5 3 L 128.5 3 L 128.5 0 L 122.5 0 L 122.5 3 L 116.5 3 L 116.5 0 L 110.5 0 L 110.5 3 L 104.5 3 L 104.5 0 L 98.5 0 L 98.5 3 L 92.5 3 L 92.5 0 L 86.5 0 L 86.5 3 L 80.5 3 L 80.5 0 L 74.5 0 L 74.5 3 L 68.5 3 L 68.5 0 L 62.5 0 L 62.5 3 L 56.5 3 L 56.5 0 L 50.5 0 L 50.5 3 L 44.5 3 L 44.5 0 L 38.5 0 L 38.5 3 L 32.5 3 L 32.5 0 L 26.5 0 L 26.5 3 L 20.5 3 L 20.5 0 L 14.5 0 L 14.5 3 L 8.5 3 L 8.5 0 L 0 0 Z" id="back_outsideCutPath" stroke="#FF0000" stroke-width="0.1" style="stroke:#FF0000;stroke-width:0.1" vector-effect="non-scaling-stroke"/><path d="M 123.93 62.426 L 124.023 62.426 A 11.516 11.516 0 0 1 124.308 62.04 Q 124.636 61.614 125.104 61.07 A 41.799 41.799 0 0 1 125.559 60.551 L 129.707 56.156 L 132.016 56.156 L 126.813 61.629 L 132.379 69 L 130.023 69 L 125.488 62.93 L 124.023 64.195 L 124.023 69 L 122.102 69 L 122.102 50.765 L 124.023 50.765 L 124.023 60.433 Q 124.023 61.066 123.933 62.377 A 80.539 80.539 0 0 1 123.93 62.426 Z M 84.566 67.348 L 84.426 67.348 L 84.016 69 L 82.621 69 L 82.621 50.765 L 84.566 50.765 L 84.566 55.195 A 40.558 40.558 0 0 1 84.544 56.565 Q 84.522 57.214 84.479 57.79 A 24.315 24.315 0 0 1 84.473 57.867 L 84.566 57.867 A 4.423 4.423 0 0 1 87.795 55.992 A 6.644 6.644 0 0 1 88.598 55.945 A 5.946 5.946 0 0 1 90.271 56.168 A 4.451 4.451 0 0 1 92.529 57.674 Q 93.651 59.058 93.874 61.363 A 12.486 12.486 0 0 1 93.93 62.566 A 11.406 11.406 0 0 1 93.779 64.485 Q 93.468 66.303 92.518 67.482 A 4.605 4.605 0 0 1 89.244 69.203 A 6.598 6.598 0 0 1 88.598 69.234 A 5.901 5.901 0 0 1 87.115 69.053 A 5.134 5.134 0 0 1 86.307 68.771 A 4.309 4.309 0 0 1 84.566 67.348 Z M 106.668 69 L 105.227 69 L 104.84 67.172 L 104.746 67.172 Q 104.068 68.024 103.392 68.488 A 3.584 3.584 0 0 1 102.83 68.807 A 4.486 4.486 0 0 1 101.904 69.099 Q 101.25 69.234 100.445 69.234 Q 98.535 69.234 97.451 68.25 A 3.197 3.197 0 0 1 96.487 66.564 A 4.895 4.895 0 0 1 96.367 65.449 Q 96.367 61.684 102.194 61.387 A 19.003 19.003 0 0 1 102.59 61.371 L 104.77 61.301 L 104.77 60.504 Q 104.77 59.58 104.527 58.951 A 2.171 2.171 0 0 0 104.119 58.271 A 1.975 1.975 0 0 0 103.31 57.744 Q 102.987 57.626 102.585 57.58 A 4.806 4.806 0 0 0 102.039 57.551 A 6.334 6.334 0 0 0 100.581 57.732 Q 99.562 57.974 98.406 58.535 L 97.809 57.047 A 8.969 8.969 0 0 1 99.54 56.335 A 10.209 10.209 0 0 1 99.889 56.238 A 9.009 9.009 0 0 1 102.156 55.945 A 8.216 8.216 0 0 1 103.408 56.034 Q 104.051 56.133 104.564 56.344 A 3.311 3.311 0 0 1 105.561 56.965 A 3.08 3.08 0 0 1 106.355 58.191 Q 106.541 58.694 106.616 59.32 A 7.654 7.654 0 0 1 106.668 60.234 L 106.668 69 Z M 119.242 56.59 L 118.645 58.242 Q 118 57.984 117.238 57.814 Q 116.587 57.669 116.064 57.648 A 4.312 4.312 0 0 0 115.891 57.644 A 4.315 4.315 0 0 0 114.138 57.974 Q 112.302 58.783 112.025 61.583 A 10.749 10.749 0 0 0 111.977 62.637 A 9.421 9.421 0 0 0 112.07 64.009 Q 112.172 64.704 112.388 65.269 A 4.035 4.035 0 0 0 112.932 66.269 A 3.09 3.09 0 0 0 114.933 67.466 A 4.706 4.706 0 0 0 115.762 67.535 A 8.143 8.143 0 0 0 118.008 67.208 A 10.054 10.054 0 0 0 119.055 66.844 L 119.055 68.566 A 5.533 5.533 0 0 1 117.701 69.045 Q 117.075 69.184 116.348 69.221 A 10.668 10.668 0 0 1 115.809 69.234 A 7.27 7.27 0 0 1 114.04 69.031 A 4.93 4.93 0 0 1 111.49 67.517 A 5.627 5.627 0 0 1 110.32 65.368 Q 109.961 64.181 109.961 62.66 A 10.733 10.733 0 0 1 110.127 60.708 Q 110.469 58.862 111.514 57.68 A 5.037 5.037 0 0 1 114.272 56.093 A 7.636 7.636 0 0 1 115.938 55.922 A 8.779 8.779 0 0 1 117.789 56.121 Q 118.715 56.32 119.242 56.59 Z M 86.197 58.057 A 2.587 2.587 0 0 0 85.445 58.717 Q 84.566 59.859 84.566 62.566 A 12.862 12.862 0 0 0 84.63 63.896 Q 84.77 65.237 85.217 66.053 A 2.934 2.934 0 0 0 85.469 66.439 A 2.822 2.822 0 0 0 86.9 67.405 Q 87.538 67.605 88.363 67.605 A 3.878 3.878 0 0 0 89.465 67.458 A 2.798 2.798 0 0 0 91.035 66.299 A 4.466 4.466 0 0 0 91.588 65.104 Q 91.761 64.536 91.842 63.849 A 11.147 11.147 0 0 0 91.914 62.543 A 11.493 11.493 0 0 0 91.845 61.233 Q 91.667 59.689 91.035 58.805 A 2.837 2.837 0 0 0 89.229 57.662 A 4.499 4.499 0 0 0 88.316 57.574 Q 87.021 57.574 86.197 58.057 Z M 104.723 63.844 L 104.723 62.683 L 102.777 62.765 Q 100.84 62.834 99.805 63.291 A 2.988 2.988 0 0 0 99.432 63.486 A 2.076 2.076 0 0 0 98.442 64.992 A 3.073 3.073 0 0 0 98.406 65.473 A 2.78 2.78 0 0 0 98.475 66.11 Q 98.591 66.601 98.9 66.938 A 1.733 1.733 0 0 0 99.045 67.078 Q 99.684 67.629 100.832 67.629 A 5.356 5.356 0 0 0 101.989 67.511 Q 102.795 67.333 103.389 66.885 A 3.248 3.248 0 0 0 103.686 66.633 Q 104.717 65.642 104.723 63.863 A 6.195 6.195 0 0 0 104.723 63.844 Z" id="back_labelLayer" stroke="#777777" fill="#777777" style="stroke:#777777;fill:#777777" vector-effect="non-scaling-stroke"/><path d="M 221 0 L 221 9 L 218 9 L 218 15 L 221 15 L 221 21 L 218 21 L 218 27 L 221 27 L 221 33 L 218 33 L 218 39 L 221 39 L 221 45 L 218 45 L 218 51 L 221 51 L 221 57 L 218 57 L 218 63 L 221 63 L 221 69 L 218 69 L 218 75 L 221 75 L 221 81 L 218 81 L 218 87 L 221 87 L 221 93 L 218 93 L 218 99 L 221 99 L 221 105 L 218 105 L 218 111 L 221 111 L 221 117 L 221 120 L 228 120 L 228 117 L 234 117 L 234 120 L 240 120 L 240 117 L 246 117 L 246 120 L 252 120 L 252 117 L 258 117 L 258 120 L 264 120 L 265 120 L 265 111 L 268 111 L 268 105 L 265 105 L 265 99 L 268 99 L 268 93 L 265 93 L 265 87 L 268 87 L 268 81 L 265 81 L 265 75 L 268 75 L 268 69 L 265 69 L 265 63 L 268 63 L 268 57 L 265 57 L 265 51 L 268 51 L 268 45 L 265 45 L 265 39 L 268 39 L 268 33 L 265 33 L 265 27 L 268 27 L 268 21 L 265 21 L 265 15 L 268 15 L 268 9 L 265 9 L 265 3 L 265 0 L 258 0 L 258 3 L 252 3 L 252 0 L 246 0 L 246 3 L 240 3 L 240 0 L 234 0 L 234 3 L 228 3 L 228 0 L 222 0 L 221 0 Z" id="right_outsideCutPath" stroke="#FF0000" stroke-width="0.1" style="stroke:#FF0000;stroke-width:0.1" vector-effect="non-scaling-stroke"/><path d="M 249.218 62.598 L 248.408 62.598 L 248.408 59.136 A 2.291 2.291 0 0 0 248.381 58.776 Q 248.319 58.386 248.11 58.159 A 0.914 0.914 0 0 0 247.735 57.92 Q 247.5 57.837 247.177 57.837 A 2.453 2.453 0 0 0 246.719 57.877 Q 246.464 57.925 246.269 58.033 A 1.135 1.135 0 0 0 245.944 58.296 A 1.349 1.349 0 0 0 245.715 58.701 Q 245.577 59.073 245.559 59.625 A 5.231 5.231 0 0 0 245.556 59.8 L 245.556 62.598 L 244.746 62.598 L 244.746 55 L 245.556 55 L 245.556 57.3 A 7.291 7.291 0 0 1 245.551 57.58 Q 245.546 57.711 245.536 57.824 A 3.171 3.171 0 0 1 245.517 57.988 L 245.566 57.988 A 1.619 1.619 0 0 1 246.133 57.442 A 1.978 1.978 0 0 1 246.247 57.38 A 2.081 2.081 0 0 1 246.93 57.178 A 2.631 2.631 0 0 1 247.255 57.158 A 3.288 3.288 0 0 1 247.808 57.201 Q 248.102 57.252 248.334 57.36 A 1.461 1.461 0 0 1 248.728 57.624 A 1.411 1.411 0 0 1 249.076 58.171 Q 249.218 58.559 249.218 59.106 L 249.218 62.598 Z M 241.796 57.246 L 243.647 57.246 L 243.647 57.759 L 242.656 57.876 Q 242.792 58.047 242.9 58.323 Q 243.007 58.599 243.007 58.945 A 1.858 1.858 0 0 1 242.922 59.521 A 1.503 1.503 0 0 1 242.47 60.2 Q 241.986 60.622 241.178 60.664 A 3.521 3.521 0 0 1 240.996 60.669 A 2.605 2.605 0 0 1 240.694 60.652 A 2.2 2.2 0 0 1 240.546 60.63 A 1.442 1.442 0 0 0 240.314 60.78 Q 240.194 60.877 240.124 60.988 A 0.61 0.61 0 0 0 240.029 61.318 Q 240.029 61.538 240.209 61.643 Q 240.39 61.748 240.83 61.748 L 241.777 61.748 A 3.318 3.318 0 0 1 242.281 61.784 Q 242.544 61.824 242.757 61.911 A 1.465 1.465 0 0 1 243.112 62.114 A 1.186 1.186 0 0 1 243.553 62.87 A 1.781 1.781 0 0 1 243.579 63.179 Q 243.579 64.067 242.866 64.534 Q 242.369 64.859 241.553 64.957 A 6.424 6.424 0 0 1 240.786 65 A 4.541 4.541 0 0 1 240.176 64.962 Q 239.558 64.878 239.167 64.609 A 1.292 1.292 0 0 1 238.751 64.157 Q 238.617 63.91 238.601 63.597 A 1.711 1.711 0 0 1 238.598 63.506 A 1.239 1.239 0 0 1 238.911 62.661 Q 239.223 62.305 239.79 62.178 A 0.841 0.841 0 0 1 239.463 61.914 A 0.999 0.999 0 0 1 239.445 61.89 A 0.751 0.751 0 0 1 239.307 61.483 A 0.931 0.931 0 0 1 239.306 61.436 A 0.927 0.927 0 0 1 239.353 61.137 A 0.821 0.821 0 0 1 239.462 60.923 A 1.16 1.16 0 0 1 239.616 60.75 Q 239.697 60.674 239.802 60.599 A 2.546 2.546 0 0 1 239.956 60.498 A 1.421 1.421 0 0 1 239.338 60.004 A 1.761 1.761 0 0 1 239.279 59.917 A 1.676 1.676 0 0 1 239.022 59.109 A 2.045 2.045 0 0 1 239.018 58.979 Q 239.018 58.101 239.545 57.624 A 1.721 1.721 0 0 1 240.206 57.26 Q 240.469 57.18 240.784 57.157 A 3.58 3.58 0 0 1 241.04 57.148 A 3.107 3.107 0 0 1 241.451 57.174 A 2.366 2.366 0 0 1 241.796 57.246 Z M 253.344 61.929 L 253.344 62.549 A 0.797 0.797 0 0 1 253.25 62.586 Q 253.149 62.62 253.004 62.646 A 3.033 3.033 0 0 1 252.956 62.654 Q 252.7 62.695 252.495 62.695 A 2.117 2.117 0 0 1 251.871 62.611 Q 250.942 62.325 250.942 61.06 L 250.942 57.876 L 250.175 57.876 L 250.175 57.485 L 250.942 57.148 L 251.284 56.006 L 251.752 56.006 L 251.752 57.246 L 253.305 57.246 L 253.305 57.876 L 251.752 57.876 L 251.752 61.025 A 1.632 1.632 0 0 0 251.776 61.312 Q 251.804 61.469 251.866 61.594 A 0.786 0.786 0 0 0 251.982 61.768 Q 252.211 62.026 252.612 62.026 A 2.662 2.662 0 0 0 253.002 61.998 A 2.453 2.453 0 0 0 253.027 61.995 Q 253.227 61.963 253.344 61.929 Z M 235.737 57.207 L 235.625 57.959 Q 235.348 57.898 235.126 57.888 A 1.901 1.901 0 0 0 235.039 57.886 Q 234.389 57.886 233.928 58.413 A 1.851 1.851 0 0 0 233.481 59.452 A 2.46 2.46 0 0 0 233.466 59.727 L 233.466 62.598 L 232.656 62.598 L 232.656 57.246 L 233.325 57.246 L 233.417 58.237 L 233.457 58.237 A 2.737 2.737 0 0 1 233.763 57.8 A 2.091 2.091 0 0 1 234.174 57.432 Q 234.594 57.148 235.097 57.148 A 3.721 3.721 0 0 1 235.43 57.163 A 2.716 2.716 0 0 1 235.737 57.207 Z M 237.548 57.246 L 237.548 62.598 L 236.738 62.598 L 236.738 57.246 L 237.548 57.246 Z M 241.518 62.476 L 240.546 62.476 A 1.863 1.863 0 0 0 240.211 62.504 Q 239.894 62.562 239.687 62.739 Q 239.379 63.003 239.379 63.496 A 0.814 0.814 0 0 0 239.433 63.798 Q 239.52 64.017 239.746 64.155 Q 240.112 64.38 240.795 64.38 A 5.449 5.449 0 0 0 241.328 64.356 Q 241.861 64.303 242.196 64.136 A 1.346 1.346 0 0 0 242.307 64.075 Q 242.797 63.77 242.797 63.247 A 1.097 1.097 0 0 0 242.777 63.029 Q 242.724 62.766 242.529 62.644 A 0.769 0.769 0 0 0 242.347 62.564 Q 242.057 62.476 241.518 62.476 Z M 239.819 58.96 A 1.582 1.582 0 0 0 239.851 59.292 Q 239.921 59.614 240.136 59.81 Q 240.454 60.098 241.02 60.098 Q 241.957 60.098 242.154 59.379 A 1.642 1.642 0 0 0 242.207 58.945 Q 242.207 57.988 241.45 57.791 A 1.763 1.763 0 0 0 241.005 57.739 Q 240.568 57.739 240.285 57.92 A 0.933 0.933 0 0 0 240.126 58.047 Q 239.865 58.308 239.826 58.783 A 2.132 2.132 0 0 0 239.819 58.96 Z M 236.806 55.388 A 0.379 0.379 0 0 0 236.722 55.507 Q 236.669 55.623 236.669 55.796 Q 236.669 55.934 236.704 56.036 A 0.418 0.418 0 0 0 236.806 56.204 Q 236.943 56.338 237.148 56.338 A 0.473 0.473 0 0 0 237.485 56.204 A 0.396 0.396 0 0 0 237.562 56.101 Q 237.597 56.035 237.613 55.95 A 0.839 0.839 0 0 0 237.626 55.796 A 0.927 0.927 0 0 0 237.622 55.708 Q 237.603 55.5 237.485 55.391 A 0.478 0.478 0 0 0 237.148 55.259 A 0.619 0.619 0 0 0 237.107 55.26 A 0.469 0.469 0 0 0 236.806 55.388 Z" id="right_labelLayer" stroke="#777777" fill="#777777" style="stroke:#777777;fill:#777777" vector-effect="non-scaling-stroke"/><path d="M 274 143 L 274 150 L 271 150 L 271 156 L 274 156 L 274 162 L 271 162 L 271 168 L 274 168 L 274 174 L 271 174 L 271 180 L 274 180 L 274 186 L 274 187 L 279.5 187 L 279.5 190 L 285.5 190 L 285.5 187 L 291.5 187 L 291.5 190 L 297.5 190 L 297.5 187 L 303.5 187 L 303.5 190 L 309.5 190 L 309.5 187 L 315.5 187 L 315.5 190 L 321.5 190 L 321.5 187 L 327.5 187 L 327.5 190 L 333.5 190 L 333.5 187 L 339.5 187 L 339.5 190 L 345.5 190 L 345.5 187 L 351.5 187 L 351.5 190 L 357.5 190 L 357.5 187 L 363.5 187 L 363.5 190 L 369.5 190 L 369.5 187 L 375.5 187 L 375.5 190 L 381.5 190 L 381.5 187 L 387.5 187 L 387.5 190 L 393.5 190 L 393.5 187 L 399.5 187 L 399.5 190 L 405.5 190 L 405.5 187 L 411.5 187 L 411.5 190 L 417.5 190 L 417.5 187 L 423.5 187 L 423.5 190 L 429.5 190 L 429.5 187 L 435.5 187 L 435.5 190 L 441.5 190 L 441.5 187 L 447.5 187 L 447.5 190 L 453.5 190 L 453.5 187 L 459.5 187 L 459.5 190 L 465.5 190 L 465.5 187 L 471.5 187 L 471.5 190 L 477.5 190 L 477.5 187 L 483 187 L 483 180 L 486 180 L 486 174 L 483 174 L 483 168 L 486 168 L 486 162 L 483 162 L 483 156 L 486 156 L 486 150 L 483 150 L 483 144 L 483 143 L 477.5 143 L 477.5 140 L 471.5 140 L 471.5 143 L 465.5 143 L 465.5 140 L 459.5 140 L 459.5 143 L 453.5 143 L 453.5 140 L 447.5 140 L 447.5 143 L 441.5 143 L 441.5 140 L 435.5 140 L 435.5 143 L 429.5 143 L 429.5 140 L 423.5 140 L 423.5 143 L 417.5 143 L 417.5 140 L 411.5 140 L 411.5 143 L 405.5 143 L 405.5 140 L 399.5 140 L 399.5 143 L 393.5 143 L 393.5 140 L 387.5 140 L 387.5 143 L 381.5 143 L 381.5 140 L 375.5 140 L 375.5 143 L 369.5 143 L 369.5 140 L 363.5 140 L 363.5 143 L 357.5 143 L 357.5 140 L 351.5 140 L 351.5 143 L 345.5 143 L 345.5 140 L 339.5 140 L 339.5 143 L 333.5 143 L 333.5 140 L 327.5 140 L 327.5 143 L 321.5 143 L 321.5 140 L 315.5 140 L 315.5 143 L 309.5 143 L 309.5 140 L 303.5 140 L 303.5 143 L 297.5 143 L 297.5 140 L 291.5 140 L 291.5 143 L 285.5 143 L 285.5 140 L 279.5 140 L 279.5 143 L 274 143 Z" id="bottom_outsideCutPath" stroke="#FF0000" stroke-width="0.1" style="stroke:#FF0000;stroke-width:0.1" vector-effect="non-scaling-stroke"/><path d="M 394.95 168.75 L 394.14 168.75 L 394.14 165.268 Q 394.14 164.868 394.032 164.593 A 0.98 0.98 0 0 0 393.866 164.309 A 0.853 0.853 0 0 0 393.47 164.053 Q 393.273 163.989 393.017 163.989 A 2.086 2.086 0 0 0 392.592 164.029 Q 392.15 164.122 391.898 164.424 Q 391.539 164.856 391.537 165.753 A 4.551 4.551 0 0 0 391.537 165.762 L 391.537 168.75 L 390.727 168.75 L 390.727 165.268 Q 390.727 164.868 390.619 164.593 A 0.98 0.98 0 0 0 390.453 164.309 A 0.85 0.85 0 0 0 390.062 164.055 Q 389.921 164.009 389.749 163.995 A 1.898 1.898 0 0 0 389.599 163.989 A 2.013 2.013 0 0 0 389.182 164.029 Q 388.732 164.125 388.483 164.446 Q 388.162 164.859 388.132 165.752 A 5.643 5.643 0 0 0 388.129 165.942 L 388.129 168.75 L 387.318 168.75 L 387.318 163.398 L 387.978 163.398 L 388.109 164.131 L 388.148 164.131 A 1.593 1.593 0 0 1 388.795 163.52 A 1.924 1.924 0 0 1 389.555 163.307 A 2.324 2.324 0 0 1 389.73 163.301 A 2.654 2.654 0 0 1 390.328 163.363 Q 391.086 163.538 391.371 164.209 L 391.41 164.209 A 1.692 1.692 0 0 1 392.048 163.576 A 2.033 2.033 0 0 1 392.103 163.545 A 2.051 2.051 0 0 1 392.856 163.316 A 2.558 2.558 0 0 1 393.139 163.301 Q 393.751 163.301 394.156 163.513 A 1.336 1.336 0 0 1 394.499 163.767 Q 394.827 164.106 394.917 164.742 A 3.718 3.718 0 0 1 394.95 165.259 L 394.95 168.75 Z M 362.86 168.061 L 362.802 168.061 L 362.631 168.75 L 362.05 168.75 L 362.05 161.152 L 362.86 161.152 L 362.86 162.998 Q 362.86 163.598 362.824 164.079 A 10.075 10.075 0 0 1 362.821 164.111 L 362.86 164.111 A 1.843 1.843 0 0 1 364.205 163.33 A 2.768 2.768 0 0 1 364.54 163.31 A 2.477 2.477 0 0 1 365.237 163.403 A 1.854 1.854 0 0 1 366.178 164.031 Q 366.645 164.607 366.739 165.568 A 5.203 5.203 0 0 1 366.762 166.069 A 4.752 4.752 0 0 1 366.699 166.869 Q 366.626 167.295 366.469 167.637 A 2.278 2.278 0 0 1 366.173 168.118 A 1.919 1.919 0 0 1 364.81 168.835 A 2.749 2.749 0 0 1 364.54 168.848 Q 364.018 168.848 363.585 168.655 A 1.795 1.795 0 0 1 362.86 168.061 Z M 376.679 168.081 L 376.679 168.701 A 0.797 0.797 0 0 1 376.584 168.739 Q 376.483 168.772 376.339 168.798 A 3.033 3.033 0 0 1 376.291 168.806 Q 376.034 168.848 375.829 168.848 A 2.117 2.117 0 0 1 375.205 168.764 Q 374.276 168.477 374.276 167.212 L 374.276 164.028 L 373.51 164.028 L 373.51 163.638 L 374.276 163.301 L 374.618 162.158 L 375.087 162.158 L 375.087 163.398 L 376.64 163.398 L 376.64 164.028 L 375.087 164.028 L 375.087 167.178 A 1.632 1.632 0 0 0 375.11 167.464 Q 375.139 167.622 375.2 167.746 A 0.786 0.786 0 0 0 375.316 167.92 Q 375.546 168.179 375.946 168.179 A 2.662 2.662 0 0 0 376.336 168.151 A 2.453 2.453 0 0 0 376.361 168.147 Q 376.561 168.115 376.679 168.081 Z M 380.209 168.081 L 380.209 168.701 A 0.797 0.797 0 0 1 380.114 168.739 Q 380.014 168.772 379.869 168.798 A 3.033 3.033 0 0 1 379.821 168.806 Q 379.564 168.848 379.359 168.848 A 2.117 2.117 0 0 1 378.735 168.764 Q 377.807 168.477 377.807 167.212 L 377.807 164.028 L 377.04 164.028 L 377.04 163.638 L 377.807 163.301 L 378.148 162.158 L 378.617 162.158 L 378.617 163.398 L 380.17 163.398 L 380.17 164.028 L 378.617 164.028 L 378.617 167.178 A 1.632 1.632 0 0 0 378.641 167.464 Q 378.669 167.622 378.73 167.746 A 0.786 0.786 0 0 0 378.847 167.92 Q 379.076 168.179 379.477 168.179 A 2.662 2.662 0 0 0 379.866 168.151 A 2.453 2.453 0 0 0 379.892 168.147 Q 380.092 168.115 380.209 168.081 Z M 372.722 166.884 A 4.187 4.187 0 0 0 372.797 166.069 Q 372.797 165.549 372.687 165.117 A 2.524 2.524 0 0 0 372.135 164.048 A 2.122 2.122 0 0 0 371.15 163.412 A 2.724 2.724 0 0 0 370.351 163.301 A 3.148 3.148 0 0 0 369.785 163.349 A 2.144 2.144 0 0 0 368.534 164.031 A 2.239 2.239 0 0 0 368.259 164.412 Q 367.88 165.073 367.88 166.069 A 4.055 4.055 0 0 0 367.931 166.726 A 2.998 2.998 0 0 0 368.183 167.544 A 2.664 2.664 0 0 0 368.242 167.659 A 2.194 2.194 0 0 0 369.042 168.511 Q 369.599 168.848 370.316 168.848 A 3.147 3.147 0 0 0 370.866 168.802 A 2.161 2.161 0 0 0 372.138 168.113 A 2.261 2.261 0 0 0 372.407 167.743 Q 372.627 167.367 372.722 166.884 Z M 385.823 166.884 A 4.187 4.187 0 0 0 385.897 166.069 Q 385.897 165.549 385.787 165.117 A 2.524 2.524 0 0 0 385.236 164.048 A 2.122 2.122 0 0 0 384.251 163.412 A 2.724 2.724 0 0 0 383.451 163.301 A 3.148 3.148 0 0 0 382.886 163.349 A 2.144 2.144 0 0 0 381.635 164.031 A 2.239 2.239 0 0 0 381.36 164.412 Q 380.98 165.073 380.98 166.069 A 4.055 4.055 0 0 0 381.031 166.726 A 2.998 2.998 0 0 0 381.283 167.544 A 2.664 2.664 0 0 0 381.342 167.659 A 2.194 2.194 0 0 0 382.143 168.511 Q 382.699 168.848 383.417 168.848 A 3.147 3.147 0 0 0 383.967 168.802 A 2.161 2.161 0 0 0 385.238 168.113 A 2.261 2.261 0 0 0 385.507 167.743 Q 385.727 167.367 385.823 166.884 Z M 368.72 166.069 Q 368.72 167.095 369.13 167.632 A 1.328 1.328 0 0 0 369.995 168.141 A 2.013 2.013 0 0 0 370.336 168.169 A 1.883 1.883 0 0 0 370.833 168.107 A 1.31 1.31 0 0 0 371.544 167.634 A 1.74 1.74 0 0 0 371.815 167.106 Q 371.895 166.863 371.93 166.565 A 4.27 4.27 0 0 0 371.957 166.069 A 4.044 4.044 0 0 0 371.919 165.493 Q 371.876 165.2 371.787 164.962 A 1.669 1.669 0 0 0 371.544 164.519 A 1.333 1.333 0 0 0 370.715 164.024 A 2.044 2.044 0 0 0 370.326 163.989 A 1.929 1.929 0 0 0 369.846 164.045 A 1.291 1.291 0 0 0 369.125 164.512 Q 368.72 165.034 368.72 166.069 Z M 381.82 166.069 Q 381.82 167.095 382.23 167.632 A 1.328 1.328 0 0 0 383.096 168.141 A 2.013 2.013 0 0 0 383.436 168.169 A 1.883 1.883 0 0 0 383.933 168.107 A 1.31 1.31 0 0 0 384.645 167.634 A 1.74 1.74 0 0 0 384.916 167.106 Q 384.996 166.863 385.03 166.565 A 4.27 4.27 0 0 0 385.058 166.069 A 4.044 4.044 0 0 0 385.019 165.493 Q 384.977 165.2 384.888 164.962 A 1.669 1.669 0 0 0 384.645 164.519 A 1.333 1.333 0 0 0 383.816 164.024 A 2.044 2.044 0 0 0 383.427 163.989 A 1.929 1.929 0 0 0 382.946 164.045 A 1.291 1.291 0 0 0 382.226 164.512 Q 381.82 165.034 381.82 166.069 Z M 363.54 164.19 A 1.078 1.078 0 0 0 363.227 164.465 Q 362.86 164.941 362.86 166.069 A 5.359 5.359 0 0 0 362.887 166.623 Q 362.945 167.182 363.132 167.522 A 1.222 1.222 0 0 0 363.236 167.683 A 1.176 1.176 0 0 0 363.833 168.086 Q 364.032 168.148 364.275 168.164 A 2.606 2.606 0 0 0 364.442 168.169 A 1.616 1.616 0 0 0 364.901 168.107 A 1.166 1.166 0 0 0 365.556 167.624 Q 365.922 167.08 365.922 166.059 A 4.789 4.789 0 0 0 365.893 165.514 Q 365.819 164.87 365.556 164.502 Q 365.189 163.989 364.423 163.989 Q 363.883 163.989 363.54 164.19 Z" id="bottom_labelLayer" stroke="#777777" fill="#777777" style="stroke:#777777;fill:#777777" vector-effect="non-scaling-stroke"/></g></svg>